# xmcd
#
# Track frame offsets:
#	150
#	16598
#	32548
#	51531
#	75242
#	95499
#	113616
#	132544
#	159664
#	180608
#
# Disc length: 2641 seconds
#
# Revision: 1
# Processed by: cddbd v1.5.2PL0 Copyright (c) Steve Scherf et al.
# Submitted via: audiograbber 1.83.01
#
DISCID=720a4f0a
DTITLE=Rodney Crowell - Close Ties
DYEAR=2017
DGENRE=Country
TTITLE0=East Houston Blues
TTITLE1=Reckless
TTITLE2=Life Without Susanna
TTITLE3=It Ain't Over (Featuring Rosanne Cash and John Paul White)
TTITLE4=I Don't Care Anymore
TTITLE5=I'm Tied To Ya' (Featuring Sheryl Crow)
TTITLE6=Forgive Me Annabelle
TTITLE7=Forty Miles From Nowhere
TTITLE8=Storm Warning
TTITLE9=Nashville 1972
EXTD=
EXTT0=
EXTT1=
EXTT2=
EXTT3=
EXTT4=
EXTT5=
EXTT6=
EXTT7=
EXTT8=
EXTT9=
PLAYORDER=
